<svg width="421" height="415" viewBox="0 0 421 415" fill="none" xmlns="http://www.w3.org/2000/svg">
<g opacity="0.3" filter="url(#filter0_f_290_917)">
<path d="M227.927 46.5915L227.921 46.5965C218.038 55.6046 202.962 55.6046 193.079 46.5965L193.076 46.5943C174.207 29.3744 148.939 19.0266 121.252 19.5167L227.927 46.5915ZM227.927 46.5915C246.792 29.3495 272.058 19.0265 299.748 19.5167L227.927 46.5915ZM19.5062 121.932L19.5062 121.936C19.2219 148.262 28.8032 172.334 44.7526 190.742L44.7568 190.747C53.0705 200.366 53.0791 214.659 44.7504 224.26C28.8054 242.665 19.2482 266.736 19.5062 293.068L19.5062 121.932ZM19.5062 121.932C20.0745 66.2298 65.4638 20.5242 121.25 19.5167L19.5062 121.932ZM193.076 368.406L193.079 368.404C202.962 359.395 218.038 359.395 227.921 368.404L227.924 368.406C246.793 385.626 272.061 395.973 299.748 395.483C355.533 394.477 400.9 348.773 401.494 293.065L401.494 293.064C401.778 266.738 392.197 242.666 376.247 224.258L376.243 224.253C367.93 214.635 367.921 200.343 376.247 190.742C392.194 172.337 401.752 148.266 401.494 121.932C400.926 66.2298 355.536 20.5242 299.75 19.5167L193.076 368.406ZM193.076 368.406C174.207 385.626 148.939 395.973 121.252 395.483M193.076 368.406L121.252 395.483M121.252 395.483C65.4655 394.477 20.0757 348.772 19.5062 293.07L121.252 395.483Z" stroke="#EAB6F2" stroke-width="11"/>
</g>
<defs>
<filter id="filter0_f_290_917" x="0" y="0" width="421" height="415" filterUnits="userSpaceOnUse" color-interpolation-filters="sRGB">
<feFlood flood-opacity="0" result="BackgroundImageFix"/>
<feBlend mode="normal" in="SourceGraphic" in2="BackgroundImageFix" result="shape"/>
<feGaussianBlur stdDeviation="7" result="effect1_foregroundBlur_290_917"/>
</filter>
</defs>
</svg>
