<svg width="317" height="313" viewBox="0 0 317 313" fill="none" xmlns="http://www.w3.org/2000/svg">
<g filter="url(#filter0_f_290_916)">
<path d="M172.3 39.0688L172.295 39.0739C164.471 46.2156 152.529 46.2156 144.705 39.0739L144.703 39.0716C131.091 26.6313 112.868 19.1581 92.896 19.5121L172.3 39.0688ZM172.3 39.0688C185.908 26.6135 204.129 19.1581 224.104 19.5121L172.3 39.0688ZM19.5045 93.4998L19.5044 93.5031C19.2994 112.524 26.2104 129.913 37.7171 143.213L37.7213 143.218C44.3024 150.843 44.3117 162.172 37.7171 169.787C26.2134 183.084 19.3185 200.472 19.5045 219.5L19.5045 93.4998ZM19.5045 93.4998C19.9144 53.2576 52.6643 20.2399 92.8942 19.5121L19.5045 93.4998ZM144.703 273.928L144.705 273.926C152.529 266.784 164.471 266.784 172.295 273.926L172.297 273.928C185.909 286.369 204.132 293.842 224.104 293.488C264.332 292.761 297.067 259.745 297.496 219.498L297.496 219.497C297.701 200.476 290.79 183.087 279.283 169.787L279.279 169.782C272.697 162.157 272.688 150.826 279.285 143.21C290.787 129.914 297.681 112.527 297.496 93.4998C297.086 53.2576 264.336 20.2399 224.106 19.5121L144.703 273.928ZM144.703 273.928C131.091 286.369 112.868 293.842 92.896 293.488M144.703 273.928L92.896 293.488M92.896 293.488C52.666 292.761 19.9156 259.744 19.5045 219.502L92.896 293.488Z" stroke="#EAB6F2" stroke-width="11"/>
</g>
<defs>
<filter id="filter0_f_290_916" x="0" y="0" width="317" height="313" filterUnits="userSpaceOnUse" color-interpolation-filters="sRGB">
<feFlood flood-opacity="0" result="BackgroundImageFix"/>
<feBlend mode="normal" in="SourceGraphic" in2="BackgroundImageFix" result="shape"/>
<feGaussianBlur stdDeviation="7" result="effect1_foregroundBlur_290_916"/>
</filter>
</defs>
</svg>
